<?xml version="1.0" encoding="UTF-8"?>
<!-- Generator: Adobe Illustrator 19.2.1, SVG Export Plug-In . SVG Version: 6.00 Build 0)  -->
<svg version="1.1" id="Calque_1" xmlns="http://www.w3.org/2000/svg" xmlns:xlink="http://www.w3.org/1999/xlink" x="0px" y="0px" viewBox="0 0 841.9 595.3" style="enable-background:new 0 0 841.9 595.3;" xml:space="preserve">
<style type="text/css">
	.st0{fill:#7D3A54;stroke:#7D3A54;stroke-miterlimit:10;}
	.st1{fill:url(#SVGID_1_);}
	.st2{fill:#7D3A54;}
	.st3{fill:url(#SVGID_2_);}
	.st4{fill:#FBF312;}
</style>
<g>
	<g>
		<path class="st0" d="M114.5,531.7l1.1,0.8c-1.4,1.7-2.7,3-4,4.1c-3.3,2.7-6.9,4-10.7,4c-3.6,0-7-1.1-10-3.4    c-5-3.8-7.6-9.2-7.6-16.4c0-3.1,0.5-5.9,1.4-8.6c1-2.7,2.3-4.9,4-6.8c3.5-3.7,7.7-5.5,12.7-5.5c2.2,0,4.2,0.3,6.2,1    c1.7,0.6,3.6,1.4,5.7,2.3l-1.4,6.4H111c-0.6-1.5-1.3-2.7-2.1-3.8c-2.3-2.8-5.2-4.2-8.7-4.2c-4.4,0-7.7,2.2-10,6.6    c-1.4,2.8-2.1,6-2.1,9.8c0,2.6,0.3,5.1,1,7.6c0.7,2.5,1.7,4.7,2.9,6.6c2.6,4,6,6,10.1,6c3.1,0,6-1.1,8.9-3.2    C111.9,534.3,113.1,533.2,114.5,531.7z"/>
		<path class="st0" d="M140.5,538c-0.6,0.6-1.1,1.1-1.6,1.5c-0.7,0.5-1.5,0.8-2.5,0.8c-2.2,0-3.4-1.3-3.6-3.8    c-0.3,0.2-0.6,0.5-1,0.7c-1.5,1-2.6,1.7-3.4,2.1c-1.5,0.7-2.9,1-4.3,1c-1.9,0-3.4-0.6-4.7-1.7c-1.2-1.1-1.7-2.4-1.7-4.1    c0-2.7,1.8-5.1,5.3-7c2.1-1.1,5.3-2.6,9.7-4.4v-5.8c0-1.2-0.4-2.2-1.1-2.8c-0.7-0.6-1.6-0.9-2.6-0.9c-1.4,0-2.5,0.4-3.1,1.3    c-0.2,0.4-0.6,1.2-1.2,2.6c-0.6,1.5-1.5,2.3-2.8,2.3c-0.8,0-1.4-0.3-1.8-0.8c-0.3-0.4-0.5-0.8-0.5-1.3c0-1.3,0.8-2.5,2.3-3.5    c2-1.3,4.4-1.9,7.4-1.9c2.6,0,4.7,0.5,6.1,1.6c1.3,1,2,2.4,2,4.3v17.9c0,1.3,0.4,2,1.1,2c0.4,0,0.8-0.3,1.1-0.8L140.5,538z     M132.8,535v-10.7c-4,1.6-6.7,2.9-8.1,4.1c-1.5,1.2-2.3,2.9-2.3,4.9c0,1.1,0.2,2.1,0.7,2.9c0.6,1.1,1.6,1.7,2.8,1.7    c1.2,0,2.4-0.3,3.7-1C130.6,536.4,131.6,535.8,132.8,535z"/>
		<path class="st0" d="M150.8,518.4v17.2c0,1.3,0.2,2.1,0.4,2.5c0.2,0.3,0.6,0.6,1.2,0.9v0.8h-8v-0.8c0.6-0.2,1-0.5,1.2-0.9    c0.3-0.4,0.4-1.2,0.4-2.5v-16.5c0-0.8-0.1-1.3-0.2-1.7c-0.2-0.5-0.7-0.8-1.4-1v-0.9c1.6-0.7,2.6-1.1,3.1-1.4    c0.4-0.2,1.2-0.9,2.4-1.9h0.9v4.9c2.5-3.1,4.8-4.7,6.8-4.7c0.8,0,1.4,0.3,2,0.8c0.5,0.4,0.7,1,0.7,1.8c0,0.8-0.3,1.4-0.8,1.8    c-0.4,0.3-0.8,0.5-1.3,0.5c-0.5,0-1.4-0.3-2.6-0.8c-0.2-0.1-0.5-0.2-0.9-0.2C153.6,516.2,152.3,516.9,150.8,518.4z"/>
		<path class="st0" d="M171.6,518.4v17.2c0,1.3,0.2,2.1,0.4,2.5c0.2,0.3,0.6,0.6,1.2,0.9v0.8h-8v-0.8c0.6-0.2,1-0.5,1.2-0.9    c0.3-0.4,0.4-1.2,0.4-2.5v-16.5c0-0.8-0.1-1.3-0.2-1.7c-0.2-0.5-0.7-0.8-1.4-1v-0.9c1.6-0.7,2.6-1.1,3.1-1.4    c0.4-0.2,1.2-0.9,2.4-1.9h0.9v4.9c2.5-3.1,4.8-4.7,6.8-4.7c0.8,0,1.4,0.3,2,0.8c0.5,0.4,0.7,1,0.7,1.8c0,0.8-0.3,1.4-0.8,1.8    c-0.4,0.3-0.8,0.5-1.3,0.5c-0.5,0-1.4-0.3-2.6-0.8c-0.2-0.1-0.5-0.2-0.9-0.2C174.4,516.2,173.1,516.9,171.6,518.4z"/>
		<path class="st0" d="M203.5,534.4c-1.9,2.2-3.7,3.7-5.2,4.6c-1.5,0.9-3.2,1.3-5.1,1.3c-1.3,0-2.7-0.3-4-1    c-1.3-0.7-2.4-1.6-3.4-2.8c-1.9-2.3-2.9-5.6-2.9-9.9c0-2.2,0.3-4.3,0.9-6.2c0.6-1.9,1.5-3.5,2.5-4.7c2-2.3,4.4-3.4,7.2-3.4    c2.4,0,4.5,0.9,6.4,2.6c2.2,2.1,3.3,5.3,3.3,9.6c0,0.3,0,0.7,0,1.3h-15.6c0.1,2.7,0.4,4.8,0.9,6.3c1.3,3.5,3.6,5.2,7,5.2    c1.6,0,3-0.4,4.3-1.3c0.8-0.5,1.6-1.2,2.6-2.1L203.5,534.4z M187.8,524.3h8.6c1.2,0,1.9-0.2,2.2-0.5c0.4-0.4,0.6-1.3,0.6-2.8    c0-2.4-0.6-4.3-1.7-5.8c-0.8-1.1-2.1-1.6-3.7-1.6c-2.2,0-3.9,1.3-4.9,3.8C188.2,518.9,187.9,521.2,187.8,524.3z"/>
		<path class="st0" d="M217.9,514.7h-4.8v20.9c0,1.3,0.1,2.1,0.4,2.5c0.2,0.3,0.6,0.6,1.2,0.9v0.8h-8v-0.8c0.6-0.2,1-0.5,1.2-0.9    c0.3-0.4,0.4-1.2,0.4-2.5v-20.9h-3.1v-1.5h3.1v-3.2c0-1,0-1.8,0-2.4c0-0.7-0.1-1.2-0.1-1.5c0-1.5,0.4-2.7,1.3-3.8    c1.2-1.5,2.9-2.2,4.9-2.2c1.4,0,2.6,0.4,3.5,1.1c0.7,0.6,1.1,1.3,1.1,2.2c0,1.5-0.7,2.3-2.2,2.3c-0.8,0-1.5-0.4-2-1.1    c-0.1-0.2-0.4-0.8-0.9-1.9c-0.3-0.7-0.7-1.1-1.3-1.1c-0.4,0-0.8,0.2-1.1,0.6c-0.3,0.4-0.4,0.9-0.4,1.4c0,0.5,0.1,1.1,0.4,1.8    c0.1,0.2,0.5,1,1.2,2.1c0.3,0.5,0.5,1.5,0.5,3v2.9h4.8V514.7z"/>
		<path class="st0" d="M231.3,512.3c2.6,0,5,0.9,7.1,2.6c1.5,1.3,2.7,2.9,3.5,4.8c0.8,2,1.2,4.2,1.2,6.6c0,5-1.6,8.8-4.7,11.3    c-2.1,1.7-4.6,2.6-7.2,2.6s-5.1-0.9-7.2-2.6c-3.1-2.5-4.7-6.3-4.7-11.2c0-2.5,0.4-4.7,1.2-6.7c0.8-2,2-3.6,3.5-4.8    C226.1,513.2,228.6,512.3,231.3,512.3z M231.1,513.6c-1.9,0-3.4,0.8-4.4,2.3c-1.6,2.3-2.5,5.8-2.5,10.6c0,4.7,0.8,8.1,2.4,10.3    c1.1,1.5,2.6,2.2,4.5,2.2c1.9,0,3.4-0.7,4.5-2.2c1.6-2.1,2.4-5.4,2.4-10.1C238.2,518,235.8,513.6,231.1,513.6z"/>
		<path class="st0" d="M261,539.7V535c-4.3,3.5-7.8,5.3-10.5,5.3c-1.3,0-2.4-0.5-3.2-1.6c-0.6-0.8-0.8-2-0.8-3.6v-16    c0-0.8-0.1-1.3-0.2-1.7c-0.2-0.5-0.6-0.8-1.3-1v-0.9c1.6-0.7,2.6-1.1,3-1.4c0.4-0.2,1.2-0.9,2.4-1.9h1v22.4c0,0.9,0.2,1.6,0.7,2.1    c0.4,0.5,0.9,0.7,1.6,0.7c1.6,0,4.1-1.3,7.4-3.8v-14.5c0-0.8-0.1-1.3-0.2-1.7c-0.2-0.5-0.6-0.8-1.3-1v-0.9c1.6-0.7,2.5-1.1,3-1.4    c0.4-0.2,1.3-0.9,2.5-1.9h1v23.4c0,1.3,0.2,2.1,0.4,2.5c0.2,0.3,0.6,0.6,1.2,0.9v0.8H261z"/>
		<path class="st0" d="M277.6,518.4v17.2c0,1.3,0.2,2.1,0.4,2.5c0.2,0.3,0.6,0.6,1.2,0.9v0.8h-8v-0.8c0.6-0.2,1-0.5,1.2-0.9    c0.3-0.4,0.4-1.2,0.4-2.5v-16.5c0-0.8-0.1-1.3-0.2-1.7c-0.2-0.5-0.7-0.8-1.4-1v-0.9c1.6-0.7,2.6-1.1,3.1-1.4    c0.4-0.2,1.2-0.9,2.4-1.9h0.9v4.9c2.5-3.1,4.8-4.7,6.8-4.7c0.8,0,1.4,0.3,2,0.8c0.5,0.4,0.7,1,0.7,1.8c0,0.8-0.3,1.4-0.8,1.8    c-0.4,0.3-0.8,0.5-1.3,0.5c-0.5,0-1.4-0.3-2.6-0.8c-0.2-0.1-0.5-0.2-0.9-0.2C280.4,516.2,279.1,516.9,277.6,518.4z"/>
		<path class="st0" d="M323,539.7v-3.8c-1.4,1.4-2.6,2.3-3.4,2.9c-1.5,1-3.1,1.5-4.7,1.5c-1.4,0-2.7-0.3-4-1    c-1.3-0.7-2.3-1.6-3.1-2.7c-1.6-2.3-2.4-5.4-2.4-9.2c0-4.7,1.2-8.5,3.5-11.4c2-2.4,4.3-3.7,7.2-3.7c1.6,0,3,0.4,4.2,1.1    c0.7,0.4,1.6,1.1,2.6,2v-8.6c0-0.8-0.1-1.4-0.2-1.7c-0.2-0.5-0.6-0.8-1.3-1v-0.9c1.6-0.7,2.6-1.1,3-1.5c0.4-0.2,1.2-0.9,2.4-1.9    h0.9v35.8c0,1.3,0.1,2.1,0.4,2.5c0.2,0.3,0.6,0.6,1.2,0.9v0.8H323z M323,534.2V520c0-1.8-0.6-3.3-1.7-4.4c-1.2-1.2-2.5-1.8-4-1.8    c-1.7,0-3.2,0.9-4.4,2.6c-0.7,1-1.2,2.5-1.7,4.6c-0.4,2.1-0.7,4.2-0.7,6.4c0,3.8,0.6,6.6,1.8,8.2c1.1,1.6,2.5,2.4,4.2,2.4    c1.3,0,2.6-0.5,4-1.5C321,536.1,321.8,535.3,323,534.2z"/>
		<path class="st0" d="M352.8,534.4c-1.9,2.2-3.7,3.7-5.2,4.6s-3.2,1.3-5.1,1.3c-1.3,0-2.7-0.3-4-1c-1.3-0.7-2.4-1.6-3.4-2.8    c-1.9-2.3-2.9-5.6-2.9-9.9c0-2.2,0.3-4.3,0.9-6.2c0.6-1.9,1.4-3.5,2.5-4.7c2-2.3,4.4-3.4,7.2-3.4c2.4,0,4.5,0.9,6.4,2.6    c2.2,2.1,3.3,5.3,3.3,9.6c0,0.3,0,0.7,0,1.3h-15.6c0.1,2.7,0.4,4.8,0.9,6.3c1.3,3.5,3.6,5.2,7,5.2c1.6,0,3-0.4,4.3-1.3    c0.8-0.5,1.6-1.2,2.6-2.1L352.8,534.4z M337.1,524.3h8.6c1.2,0,1.9-0.2,2.2-0.5c0.4-0.4,0.6-1.3,0.6-2.8c0-2.4-0.6-4.3-1.7-5.8    c-0.8-1.1-2.1-1.6-3.7-1.6c-2.2,0-3.9,1.3-4.9,3.8C337.5,518.9,337.2,521.2,337.1,524.3z"/>
		<path class="st0" d="M405.3,531.7l1.1,0.8c-1.4,1.7-2.7,3-4,4.1c-3.3,2.7-6.9,4-10.7,4c-3.6,0-7-1.1-10-3.4    c-5-3.8-7.6-9.2-7.6-16.4c0-3.1,0.5-5.9,1.4-8.6c1-2.7,2.3-4.9,4-6.8c3.5-3.7,7.7-5.5,12.7-5.5c2.2,0,4.2,0.3,6.2,1    c1.7,0.6,3.6,1.4,5.7,2.3l-1.4,6.4h-0.9c-0.6-1.5-1.3-2.7-2.1-3.8c-2.3-2.8-5.2-4.2-8.7-4.2c-4.4,0-7.7,2.2-10,6.6    c-1.4,2.8-2.1,6-2.1,9.8c0,2.6,0.3,5.1,1,7.6c0.7,2.5,1.7,4.7,2.9,6.6c2.6,4,6,6,10.1,6c3.1,0,6-1.1,8.9-3.2    C402.8,534.3,403.9,533.2,405.3,531.7z"/>
		<path class="st0" d="M422.5,512.3c2.6,0,5,0.9,7.1,2.6c1.5,1.3,2.7,2.9,3.5,4.8c0.8,2,1.2,4.2,1.2,6.6c0,5-1.6,8.8-4.7,11.3    c-2.1,1.7-4.6,2.6-7.2,2.6s-5.1-0.9-7.2-2.6c-3.1-2.5-4.7-6.3-4.7-11.2c0-2.5,0.4-4.7,1.2-6.7c0.8-2,2-3.6,3.5-4.8    C417.3,513.2,419.7,512.3,422.5,512.3z M422.3,513.6c-1.9,0-3.4,0.8-4.4,2.3c-1.6,2.3-2.5,5.8-2.5,10.6c0,4.7,0.8,8.1,2.4,10.3    c1.1,1.5,2.6,2.2,4.5,2.2c1.9,0,3.4-0.7,4.5-2.2c1.6-2.1,2.4-5.4,2.4-10.1C429.4,518,427,513.6,422.3,513.6z"/>
		<path class="st0" d="M458.8,517.1c4.5-3.2,7.8-4.8,9.9-4.8c1.1,0,2.1,0.4,2.8,1.1c0.5,0.5,0.7,0.9,0.9,1.4    c0.2,0.6,0.2,1.4,0.2,2.4v18.3c0,1.3,0.2,2.1,0.4,2.5c0.2,0.3,0.6,0.6,1.2,0.9v0.8h-7.9v-0.8c0.6-0.2,1-0.5,1.2-0.9    c0.3-0.4,0.4-1.2,0.4-2.5v-17.3c0-2-0.8-3-2.4-3c-0.8,0-1.9,0.4-3.5,1.2c-0.6,0.3-1.7,0.9-3.3,1.8v17.3c0,1.3,0.2,2.1,0.4,2.5    c0.2,0.3,0.6,0.6,1.2,0.9v0.8h-8v-0.8c0.6-0.2,1-0.5,1.2-0.9c0.3-0.4,0.4-1.2,0.4-2.5v-17.5c0-1.9-0.8-2.8-2.4-2.8    c-0.8,0-1.9,0.4-3.5,1.2c-0.5,0.3-1.6,0.9-3.3,1.9v17.2c0,1.3,0.2,2.1,0.4,2.5c0.2,0.3,0.6,0.6,1.2,0.9v0.8h-8v-0.8    c0.6-0.2,1-0.5,1.2-0.9c0.3-0.4,0.4-1.2,0.4-2.5v-16.5c0-0.8-0.1-1.3-0.2-1.7c-0.2-0.4-0.6-0.8-1.3-1v-0.9c1.6-0.7,2.6-1.1,3-1.4    c0.4-0.2,1.2-0.9,2.4-1.9h0.9v5.1c1.6-1.2,3.1-2.1,4.4-2.9c2.2-1.3,4.1-2,5.5-2C457.3,512.3,458.6,513.9,458.8,517.1z"/>
		<path class="st0" d="M499.5,517.1c4.5-3.2,7.8-4.8,9.9-4.8c1.1,0,2.1,0.4,2.8,1.1c0.5,0.5,0.7,0.9,0.9,1.4    c0.2,0.6,0.2,1.4,0.2,2.4v18.3c0,1.3,0.2,2.1,0.4,2.5c0.2,0.3,0.6,0.6,1.2,0.9v0.8H507v-0.8c0.6-0.2,1-0.5,1.2-0.9    c0.3-0.4,0.4-1.2,0.4-2.5v-17.3c0-2-0.8-3-2.4-3c-0.8,0-1.9,0.4-3.5,1.2c-0.6,0.3-1.7,0.9-3.3,1.8v17.3c0,1.3,0.2,2.1,0.4,2.5    c0.2,0.3,0.6,0.6,1.2,0.9v0.8h-8v-0.8c0.6-0.2,1-0.5,1.2-0.9c0.3-0.4,0.4-1.2,0.4-2.5v-17.5c0-1.9-0.8-2.8-2.4-2.8    c-0.8,0-1.9,0.4-3.5,1.2c-0.5,0.3-1.6,0.9-3.3,1.9v17.2c0,1.3,0.2,2.1,0.4,2.5c0.2,0.3,0.6,0.6,1.2,0.9v0.8h-8v-0.8    c0.6-0.2,1-0.5,1.2-0.9c0.3-0.4,0.4-1.2,0.4-2.5v-16.5c0-0.8-0.1-1.3-0.2-1.7c-0.2-0.4-0.6-0.8-1.3-1v-0.9c1.6-0.7,2.6-1.1,3-1.4    c0.4-0.2,1.2-0.9,2.4-1.9h0.9v5.1c1.6-1.2,3.1-2.1,4.4-2.9c2.2-1.3,4.1-2,5.5-2C498,512.3,499.3,513.9,499.5,517.1z"/>
		<path class="st0" d="M534.7,539.7V535c-4.3,3.5-7.8,5.3-10.5,5.3c-1.3,0-2.4-0.5-3.2-1.6c-0.5-0.8-0.8-2-0.8-3.6v-16    c0-0.8-0.1-1.3-0.2-1.7c-0.2-0.5-0.6-0.8-1.3-1v-0.9c1.6-0.7,2.6-1.1,3-1.4c0.4-0.2,1.2-0.9,2.4-1.9h1v22.4c0,0.9,0.2,1.6,0.7,2.1    c0.4,0.5,0.9,0.7,1.6,0.7c1.6,0,4.1-1.3,7.4-3.8v-14.5c0-0.8-0.1-1.3-0.2-1.7c-0.2-0.5-0.6-0.8-1.3-1v-0.9c1.6-0.7,2.5-1.1,3-1.4    c0.4-0.2,1.3-0.9,2.5-1.9h1v23.4c0,1.3,0.2,2.1,0.4,2.5c0.2,0.3,0.6,0.6,1.2,0.9v0.8H534.7z"/>
		<path class="st0" d="M552.5,517.5c1.6-1.2,3.1-2.1,4.3-2.8c2.6-1.6,4.7-2.4,6.3-2.4c1.3,0,2.3,0.4,3,1.3c0.7,0.9,1,2.1,1,3.8v18.2    c0,1.3,0.1,2.1,0.4,2.5c0.2,0.3,0.6,0.6,1.2,0.9v0.8h-8v-0.8c0.6-0.2,1-0.5,1.2-0.9c0.3-0.4,0.4-1.2,0.4-2.5v-17.1    c0-1.2-0.2-2-0.5-2.5c-0.4-0.5-0.9-0.8-1.8-0.8c-0.9,0-2.3,0.5-4.2,1.6c-0.6,0.3-1.6,1-3.2,2v16.8c0,1.3,0.2,2.1,0.4,2.5    c0.2,0.3,0.6,0.6,1.2,0.9v0.8h-8v-0.8c0.6-0.2,1-0.5,1.2-0.9c0.3-0.4,0.4-1.2,0.4-2.5v-16.5c0-0.8-0.1-1.3-0.2-1.7    c-0.2-0.5-0.6-0.8-1.3-0.9v-0.9c1.6-0.7,2.5-1.1,3-1.4c0.4-0.2,1.3-0.9,2.4-1.9h1V517.5z"/>
		<path class="st0" d="M571.3,516.4v-0.9c1.6-0.7,2.7-1.1,3.1-1.4c0.4-0.2,1.3-0.9,2.4-1.9h0.9v23.4c0,1.3,0.2,2.1,0.4,2.5    c0.2,0.3,0.6,0.6,1.2,0.9v0.8h-8v-0.8c0.6-0.2,1-0.5,1.2-0.9c0.3-0.4,0.4-1.2,0.4-2.5v-16.5c0-0.8-0.1-1.3-0.2-1.7    C572.6,516.9,572.1,516.6,571.3,516.4z M575,500.4c0.9,0,1.6,0.3,2.2,0.8c0.6,0.5,0.9,1.2,0.9,2c0,1.1-0.5,1.8-1.4,2.3    c-0.5,0.3-1.2,0.5-1.8,0.5c-0.9,0-1.7-0.3-2.3-0.8s-0.9-1.2-0.9-2c0-1.1,0.5-1.9,1.4-2.4C573.5,500.6,574.2,500.4,575,500.4z"/>
		<path class="st0" d="M603.8,534.4c-1.4,2-2.8,3.3-4.1,4.1c-1.9,1.2-3.8,1.8-5.7,1.8c-2.6,0-4.9-0.9-6.7-2.8    c-2.4-2.4-3.6-5.9-3.6-10.3c0-2.4,0.3-4.7,1-6.7c0.7-2,1.6-3.7,2.9-5c2-2.1,4.5-3.2,7.4-3.2c1.7,0,3.2,0.4,4.6,1.1    c1.4,0.7,2.3,1.7,2.8,2.9c0.2,0.5,0.3,1,0.3,1.4c0,0.8-0.3,1.4-0.8,1.9c-0.4,0.4-0.9,0.6-1.5,0.6c-1.3,0-2.2-1.1-2.5-3.2    c-0.2-1.2-0.4-1.9-0.6-2.3c-0.4-0.8-1.2-1.2-2.4-1.2c-0.8,0-1.5,0.2-2.3,0.6c-0.7,0.4-1.4,0.8-1.8,1.4c-1.7,2.1-2.6,5.1-2.6,9.1    c0,3,0.5,5.6,1.4,7.8c1.3,3.4,3.6,5.1,6.8,5.1c1.8,0,3.3-0.5,4.7-1.6c0.6-0.5,1.3-1.1,2-1.9L603.8,534.4z"/>
		<path class="st0" d="M629.2,538c-0.6,0.6-1.1,1.1-1.6,1.5c-0.7,0.5-1.5,0.8-2.5,0.8c-2.2,0-3.4-1.3-3.6-3.8    c-0.3,0.2-0.6,0.5-1,0.7c-1.5,1-2.6,1.7-3.4,2.1c-1.5,0.7-2.9,1-4.3,1c-1.9,0-3.4-0.6-4.7-1.7c-1.2-1.1-1.7-2.4-1.7-4.1    c0-2.7,1.8-5.1,5.3-7c2.1-1.1,5.3-2.6,9.7-4.4v-5.8c0-1.2-0.4-2.2-1.1-2.8c-0.7-0.6-1.6-0.9-2.6-0.9c-1.4,0-2.5,0.4-3.1,1.3    c-0.2,0.4-0.6,1.2-1.2,2.6c-0.6,1.5-1.5,2.3-2.8,2.3c-0.8,0-1.4-0.3-1.8-0.8c-0.3-0.4-0.5-0.8-0.5-1.3c0-1.3,0.8-2.5,2.3-3.5    c2-1.3,4.4-1.9,7.4-1.9c2.6,0,4.7,0.5,6.1,1.6c1.3,1,2,2.4,2,4.3v17.9c0,1.3,0.4,2,1.1,2c0.4,0,0.8-0.3,1.1-0.8L629.2,538z     M621.5,535v-10.7c-4,1.6-6.7,2.9-8.1,4.1c-1.5,1.2-2.3,2.9-2.3,4.9c0,1.1,0.2,2.1,0.7,2.9c0.6,1.1,1.6,1.7,2.8,1.7    c1.2,0,2.4-0.3,3.7-1C619.3,536.4,620.3,535.8,621.5,535z"/>
		<path class="st0" d="M643,514.5h-4.3v20.7c0,1.9,0.7,2.9,2,2.9c1,0,1.9-0.6,2.8-1.7l0.7,0.6c-0.8,1.1-1.5,1.8-2.2,2.3    c-1,0.7-2.2,1.1-3.4,1.1c-1.6,0-2.9-0.5-3.9-1.6c-0.7-0.7-1-1.9-1-3.4v-20.7h-3.1v-1.4c1.2-0.6,2.1-1.3,2.8-2    c1.9-2.1,3.3-4.8,4.2-8.1h1v10.1h4.3V514.5z"/>
		<path class="st0" d="M647.2,516.4v-0.9c1.6-0.7,2.7-1.1,3.1-1.4c0.4-0.2,1.3-0.9,2.4-1.9h0.9v23.4c0,1.3,0.2,2.1,0.4,2.5    c0.2,0.3,0.6,0.6,1.2,0.9v0.8h-8v-0.8c0.6-0.2,1-0.5,1.2-0.9c0.3-0.4,0.4-1.2,0.4-2.5v-16.5c0-0.8-0.1-1.3-0.2-1.7    C648.5,516.9,648,516.6,647.2,516.4z M650.9,500.4c0.9,0,1.6,0.3,2.2,0.8c0.6,0.5,0.9,1.2,0.9,2c0,1.1-0.5,1.8-1.4,2.3    c-0.5,0.3-1.2,0.5-1.8,0.5c-0.9,0-1.7-0.3-2.3-0.8c-0.6-0.5-0.9-1.2-0.9-2c0-1.1,0.5-1.9,1.4-2.4    C649.5,500.6,650.1,500.4,650.9,500.4z"/>
		<path class="st0" d="M669.3,512.3c2.6,0,5,0.9,7.1,2.6c1.5,1.3,2.7,2.9,3.5,4.8c0.8,2,1.2,4.2,1.2,6.6c0,5-1.6,8.8-4.7,11.3    c-2.1,1.7-4.6,2.6-7.2,2.6s-5.1-0.9-7.2-2.6c-3.1-2.5-4.7-6.3-4.7-11.2c0-2.5,0.4-4.7,1.2-6.7c0.8-2,2-3.6,3.5-4.8    C664.1,513.2,666.6,512.3,669.3,512.3z M669.1,513.6c-1.9,0-3.4,0.8-4.4,2.3c-1.6,2.3-2.5,5.8-2.5,10.6c0,4.7,0.8,8.1,2.4,10.3    c1.1,1.5,2.6,2.2,4.5,2.2c1.9,0,3.4-0.7,4.5-2.2c1.6-2.1,2.4-5.4,2.4-10.1C676.2,518,673.8,513.6,669.1,513.6z"/>
		<path class="st0" d="M690.6,517.5c1.6-1.2,3.1-2.1,4.3-2.8c2.6-1.6,4.7-2.4,6.3-2.4c1.3,0,2.3,0.4,3,1.3c0.7,0.9,1,2.1,1,3.8v18.2    c0,1.3,0.1,2.1,0.4,2.5c0.2,0.3,0.6,0.6,1.2,0.9v0.8h-8v-0.8c0.6-0.2,1-0.5,1.2-0.9c0.3-0.4,0.4-1.2,0.4-2.5v-17.1    c0-1.2-0.2-2-0.5-2.5c-0.4-0.5-0.9-0.8-1.8-0.8c-0.9,0-2.3,0.5-4.2,1.6c-0.6,0.3-1.6,1-3.2,2v16.8c0,1.3,0.2,2.1,0.4,2.5    c0.2,0.3,0.6,0.6,1.2,0.9v0.8h-8v-0.8c0.6-0.2,1-0.5,1.2-0.9c0.3-0.4,0.4-1.2,0.4-2.5v-16.5c0-0.8-0.1-1.3-0.2-1.7    c-0.2-0.5-0.6-0.8-1.3-0.9v-0.9c1.6-0.7,2.5-1.1,3-1.4c0.4-0.2,1.3-0.9,2.4-1.9h1V517.5z"/>
		<path class="st0" d="M724.7,520.2l-0.8-0.3c0.1-0.5,0.1-0.9,0.1-1.2c0-0.8-0.2-1.6-0.7-2.4c-0.4-0.8-1-1.4-1.8-1.9    c-1-0.6-2.1-0.9-3.3-0.9c-1.4,0-2.6,0.4-3.6,1.3c-1.1,0.9-1.6,2-1.6,3.2c0,2.1,1.6,3.8,4.8,5.3c2.7,1.2,4.5,2.1,5.4,2.6    c0.9,0.5,1.7,1.1,2.3,1.7c1.4,1.4,2.1,3,2.1,4.9c0,2.4-1,4.4-3,5.9c-1.7,1.3-3.9,1.9-6.4,1.9c-1.7,0-3.3-0.3-4.7-0.8    c-1.4-0.5-3-1.3-5-2.4l1.8-6.1l0.9,0.3c-0.1,0.6-0.1,1.1-0.1,1.5c0,1.9,0.8,3.4,2.4,4.7c1.3,1,2.7,1.5,4.3,1.5    c1.9,0,3.4-0.7,4.4-2.1c0.6-0.9,1-1.8,1-2.9c0-1.3-0.4-2.3-1.3-3.1c-0.7-0.6-1.4-1.2-2.3-1.6l-4.6-2.2c-3.8-1.8-5.6-4.2-5.6-7.2    c0-2.6,1.1-4.5,3.3-5.9c1.6-1,3.5-1.5,5.6-1.5c1.8,0,3.4,0.3,5,1c0.9,0.4,1.9,0.8,3,1.5L724.7,520.2z"/>
	</g>
	<linearGradient id="SVGID_1_" gradientUnits="userSpaceOnUse" x1="402.8482" y1="151.3129" x2="402.8482" y2="484.8388">
		<stop offset="0" style="stop-color:#DFE0E0"/>
		<stop offset="1" style="stop-color:#B9B9BA"/>
	</linearGradient>
	<path class="st1" d="M192.6,241.3c-1,12.2-0.5,24.4,1.9,36.6c1.5,7.7,3.6,15,6.4,22c-15.9-2-31.7-4.1-46.5-6   c0.3-2.9,0.7-5.8,1.1-8.7c0.8-5.8,1.7-11.8,1.9-17.9c0.2-3.9-1.5-7.8-4.7-11c-3.7-3.7-9-5.9-13.9-5.8c-0.3-0.1-0.7-0.4-0.9-0.6   c-4.1-8.7-11.9-12.3-18.9-14.6c-7.7-2.6-15.1-1.8-23.3-0.6c-6.7,1-10,4.1-12.1,8c-0.7,0.3-1.2,0.6-1.7,1l-0.2-67.4l0.3-1.1   c0.3-1.3,1-2.6,1.6-4c0.3-0.6,0.5-1.1,0.8-1.7c3-6.9,3.4-12.8,0.9-18.2h123.9c-2.1,6.3-4.1,12.5-6.1,18.8c-2,6.3-3.6,12.7-4.5,19.2   C196.3,206.6,194,223.9,192.6,241.3z M587.6,281.1c-2.3,3.3-4.3,6.7-7.5,10c0.1,0,0.1,0,0.2,0l-1.1,1.2h43.2l4.1-6l-3.4-2.2   c-1.5-1-2.8-2.4-4.2-3.9c-1.3-1.4-2.7-2.9-4.4-4.2c-3.4-2.7-7.1-3.1-10.3-3.1c55.3-23.7,103.4-44.9,119.4-51.9   c0,0,0.3,127.3,0.3,127.3c0-1.5-5-4.8-5.9-6.2c-2.6-3.9-5.1-7.3-8.4-10.8c-2.5-2.6-5.7-4.9-7.9-7.7c-0.3-0.3-0.5-0.7-0.7-1   c-0.7-1.1-1.6-2.4-3-3.5c-2.2-1.8-4.2-4.1-6.2-6.5c-1.7-2-3.4-4.1-5.5-6l-3.2-3l-2.7,3.5c-2.6,3.4-6,6.3-8.8,9.6   c-0.9,1.1-7.1,10.4-7.9,10.2c-8.4-1.6-16.7-0.9-23-0.1c-3.5,0.4-7.4,0.4-11.5,0c-7.5-0.8-15-1-22.2-1.1c-3.9-0.1-7.9-0.1-11.8-0.3   c-3.5-0.2-7.1,0-10.6,0.1c-1.1,0-2.3,0.1-3.4,0.1c-2.1,0.1-4.2,0.2-6.3,0.3c-5.2,0.3-10.1,0.5-15.1,0.1c-5.5-0.5-9.3,2.3-12.3,5   c-0.5,0.4-0.9,0.9-1.4,1.3c-21.9-2.6-43.9-5.1-65.4-7.3c34.4-14.1,73.5-30.6,110.3-46.3c-0.4,0.5-0.7,1.1-1.1,1.6c-0.3,0-0.6,0-1,0   C588.7,280,588,280.6,587.6,281.1z M573.6,301.3c0,0.1-0.1,0.2-0.1,0.3c-2.6,0.1-3.8,1.1-4.6,3.7c-0.1,0.4-0.2,0.7-0.3,1.1   c-0.9,1-1.5,2-1.9,2.9c-0.1,0.2-0.3,0.5-0.4,0.7c0,0.1-0.1,0.1-0.1,0.2c-0.2,0.1-0.4,0.2-0.6,0.2c-2.6,0.6-3.2,2.6-4.3,4.4   c-2.3,4-2.1,4.3,2.7,4.7c1,0.1,2,0.1,3.1,0.1c1.5,0.8,3.3,0.9,5.1,1.1c4,0.3,7.9-0.1,11.6-0.5c1.7-0.2,3.3-0.4,4.9-0.5   c5.6-0.4,11.2,0,17.1,0.5c4.6,0.3,9.3,0.7,14,0.6c4.2-0.1,7.6,0,11.1,0.6c1.7,0.3,3.4,0.5,5.2,0.5c2.2,0,4.5-0.2,7.1-0.7l7.1-1.2   l-4.8-5.4c-0.7-0.7-1.2-1.5-1.7-2.3c-0.9-1.3-1.8-2.9-3.5-4.1h0c-3-2.1-4.9-5.6-6.6-8.9c-1.9-3.9-4.8-4.5-7.3-4.5c0,0,0,0,0,0   l-9.9,0c-11.2,0-22.7,0-34-0.1c0,0-0.1,0-0.1,0C577.7,294.8,574.9,296.9,573.6,301.3z M557.7,152.8c-11.5,6.3-23.5,10.5-33.8-1.4   h-66.9c-0.1,1.5-0.2,3-0.4,4.4c-1.2,15.3-2.5,30.9-3.7,46.2c1.2-1.5,2.4-2.6,3.9-3.2c0,0,0,0,0,0c4.5-7.1,9.4-8.8,18.7-6.4   c6.5,1.6,11.1,7.7,11.1,14.5c-0.1,7.6-0.4,15.2-1,24.2c-0.4,6.2-0.4,12.2,2.9,17.1c0.7,1,1.9,2.1,2.5,2.4c6.1-1,11.1-2.5,15.1-4.4   c2.6-1.2,5.1-3,7.5-5c0.5-1.2,0.8-2.7,0.8-3.9c-0.1-11.8-1.8-23.8,3.8-34.9c3.9-7.8,8.2-15.5,15.1-21.1c2.4-2.9,5.1-5.5,8.4-7.8   c7.4-5.1,14.9-5.6,20.5-1.4c4.1,3,7.6,8.2,9.4,13.8c2.5,7.8,1.8,14.7-2.2,20.6c-1.8,2.7-3.3,5.5-4.9,8.6c-1.6,3.1-3.3,6.3-5.3,9.3   c-2.3,3.4-5,6.5-7.5,9.4c-1.5,1.8-3,3.4-4.4,5.2c-0.5,0.6-0.8,1.1-0.9,1.5c0.3,0.1,0.9,0.3,1.7,0.3c9.2,0.7,18.3-0.8,26.8-4.3   c2.3-1,4.7-1.4,7-1.8c1.9-0.3,3.6-0.7,5.2-1.3c15.1-5.8,27.5-10.7,38.7-15.5c8.1-3.4,16.2-7.3,24-11.1l4.5-2.2   c2.2-1.1,4.4-2.3,6.7-3.6c1.1-0.6,2.1-1.2,3.2-1.8l2.5-1.4l5.4,5l-1.3,2.7c-0.1,0.3-0.3,0.7-0.4,1.1c-0.5,1.5-1.3,3.6-3.3,4.9   c-4.5,2.8-9.1,5.5-13.6,8.1c-2.7,1.5-5.4,3.1-8,4.7c-1,0.6-2.1,1.4-3.2,2.1c-1.3,0.9-2.6,1.8-4.1,2.7c-8.3,4.8-16.7,9.4-23.8,13.4   c-1.8,1-3.6,2.1-5.4,3.1c-4.7,2.8-9.7,5.6-14.9,7.7c-8.9,3.5-16.9,5.7-24.4,6.7c-9.3,1.2-19,1-28,0.5c-2.8-0.1-5.4-1-8.3-1.2   c-2.6-0.1-5.1-0.9-7.2-2.1c-0.4,0.3-0.8,0.5-1.2,0.8c-6.1,4-12.5,8.2-18.9,12c-6.1,3.7-17.1,3.6-23.1-0.7   c-4.9-3.5-10.7-6-14.8-10.2c-2.4-2.5-4.2-5.7-5.8-9c-2.8,10.7-3.9,22-4.5,35c0,0.2,0,0.4,0,0.5c0,1.1,0,2.5-0.8,4   c-0.2,0.4-0.4,0.9-0.6,1.3c-1.2,2.8-3.6,8.1-10.5,7.5c-2.7-0.2-5.4-0.9-8.2-1.2c-4.5-0.4-5.1-4.1-5.2-7.3   c-0.2-6.9-0.2-13.9-0.2-20.8c-2,3.5-4.1,6.9-6.4,10.2c-5.7,8.2-11.4,14.6-17.4,19.6c-2.6,2.2-5.8,3.1-9.2,2.6   c-6-0.9-12.5-1.5-16.1-7.1c-3.5-5.4-6.2-11.1-7.6-17.4c-2.1,3.3-4.4,6.7-6.9,9.8c-4.4,5.5-9.8,10.1-15.1,14.5l-1.4,1.2   c-3.3,2.8-7.2,5-10.8,6c-6.1,1.8-10.9,0.5-17,0c-2.1-0.2-4.1-0.6-5.9-1.7c-3.7-2.3-5.5-6.5-6.6-10.5c-4.9-18.2-2.9-36.8,1.9-54.8   c2.4-8.9,6.3-17.6,10.6-25.8c2.2-4.3,5.9-7.9,9.6-11.3c2.2-2.5,4.7-4.8,7.1-6.9c4.3-3.8,9.1-7.2,14.1-9.7c4.1-2.1,9-2.6,12.4-2.6   c4.6,0,8.1,1.3,10.6,3.8c2.4,2.5,3.6,5.9,3.4,10.3c-0.4,11.5-5.4,20.6-10.9,29.6l-0.9,1.4c-2.1,3.5-4.3,7.1-6.9,10.4   c-1.2,1.6-2.4,3.2-3.6,4.8c-4.5,6-9.1,12.2-14.5,17.6c-6.8,6.9-9.3,14.1-7.8,22.8c0.3,1.5,1,3,1.5,3.6c0.4,0,1.7-0.1,4.8-1.5   c2.6-1.2,4.9-2.7,7.1-4.5c3.5-4,6.7-8.4,10.1-12.5c5.5-6.6,10-14.4,13.4-22.3c2.2-5.1,1.3-11.5,2.7-17.1c2-8.5,3.5-17.4,7.4-25   c4.9-9.7,11.7-18.4,18.3-27.2c3.1-4.2,7.9-9.4,13.5-10c3.3-0.3,6.6,0.9,9.3,3.4c2.7,2.5,5.4,5.3,8,8.3c0.1-10,0.2-20,0.3-30h-77.8   c2.7,2.3,5.7,4.7,8.8,7.2c1.5,1.1,2.4,2.6,3.3,3.8c0.3,0.4,0.6,0.9,0.9,1.2l1.7,2.3l-4.4,6.7c0.2-0.3-4.7-1.3-5.1-1.4   c-2.7-0.3-5-0.7-7.5-1.7c-2.6-0.9-5.2-1.8-7.6-3.2c-8.1-4.7-16-9.7-23.8-14.9h-50.4c-0.1,0.6-0.3,1.1-0.5,1.7   c-3.2,10.6-6.3,21.3-9.4,31.7l-0.8,2.8c-0.2,0.8-0.4,1.8-0.6,2.8c-1,5.5-3,9.8-8.3,12.2c-6.1,2.8-12.4-2.8-17.4-5.9   c-6-3.8-7-9.5-5.1-15.6c3.1-9.8,4.7-19.7,5.5-29.7h-3.3c-7.2,21.4-11,44.7-11.9,72.9c-0.5,16.3-0.5,37.7,4.2,58.8   c1.2,5.5,3.3,11.1,6,16.6c1.1,2.2,2.5,3.6,3.7,3.8c5.1-8.9,10-18,14.5-27.3c4.2-8.5,7.9-17.3,11.2-26.2c1.5-4.1,1.8-8.8,2.2-13.2   c0.5-6.4,1-12.8,1.4-19.2c0.4-5.4-0.5-13,2.5-17.7c1.6-2.5,4-2.6,6.7-2.7c6.8-0.4,10.8,2.7,14,5.2c0.8,0.6,1.6,1.2,2.3,1.7   c3.3,2.2,4.8,4.9,5.5,7.8c1.5-1.5,3-2.9,4.6-4.2c3.5-2.8,7.5-5.3,11.9-7.4c2.3-1.1,4.7-0.4,6.5,0.1c0.5,0.1,1,0.3,1.3,0.4   c3.3,0.6,4.4,2.9,2.8,5.9c-0.1,0.3-0.3,0.7-0.5,1.1c-0.6,1.5-1.5,3.6-3.5,4.7c-5.8,3.2-8,9.3-10.3,15.7c-0.3,0.7-0.5,1.4-0.8,2.1   c-4.2,11.2-7.2,23.3-9.7,33.7c-1.7,7.3-3.1,14.8-4.4,22.2c-0.6,3.5-1.3,7.2-2,10.8c-0.4,1.9-0.8,3.8-1.2,5.7   c-0.5,2.5-1.1,5.1-1.5,7.6c20.4,2.1,36.6,3.5,44.9,3.6c24.1,0.1,57.9,2.4,96,5.8c5.9-1.7,11.8-3.5,17.8-5.2   c177.3-50.9,269.5-98.1,277.9-102.4l-0.2-60.6H560.3C559.4,151.8,558.5,152.3,557.7,152.8z M249.5,321.1c-0.4,0.5-0.7,1.1-1.1,1.6   c-2.7,3.9-7,6.2-12,6.5c-0.4,0-0.7,0-1.1,0c-6.6,0-15.3-1.1-19.9-6.3c-2-2.2-3.8-4.4-5.4-6.8c-20-2.5-39.2-4.8-56.9-7   c0,0.1,0,0.2,0,0.3c0,0.5-0.1,1-0.1,1.5c0.2,0,0.3,0,0.5,0c3,0.3,5.9,0.5,8.8,1.2c4,0.9,5.8,3.2,6.6,4.9c1.2,2.7,0.9,5.9-0.8,9   c-2.4,4.4-5.1,8.3-8.2,11.6c-5.8,6.3-12.2,4.6-19.7,3.7c-2.3-0.3-4.5-1.5-6.4-2.9c-1.6-1.1-3.2-2.2-4.7-3.4   c-3.3,7.9-7.9,15.6-15.7,21.7c-5.3,4.1-12.9,5.3-20,3.1c-0.1,0-0.2-0.1-0.3-0.1c-3.7,0.2-7.5-0.7-10.7-2.5l0.2,85.1   c27.2-11.3,150.3-61.5,289.4-105.8C336.2,332,292.6,326.4,249.5,321.1z M662,454.9c-2.6-0.1-5.2-0.2-7.8-0.2c-2,0-4-0.2-6-0.4   c-2.3-0.2-4.6-0.4-6.7-0.4c-1.8,0.1-3.3-0.5-4.5-1c-1.4-0.1-2.8-0.2-4.2-0.1c-1.5,0-2.6-0.7-3.9-1.3c-1.4,0-2.7,0.1-4.2,0.1   c-1.2,0.1-2.4,0.1-3.6,0.1c-11.5,0.3-23.3,0.2-34.6,0.2l-7.5,0c-0.2,0-0.4,0-0.6,0c-1,0.1-3.5,0.3-5.5-1.2c-0.8,0-1.6,0-2.4,0   c-1.6,0-3.6,0.7-4.4-1.3c-0.7-1.6,0.5-2.8,1.4-4c1.6-2.3,2.6-5.2,5.5-6.6c-4-0.1-7.9-0.1-11.7,0.3c-8.3,0.9-16.6,0.8-24.6,0.8   c-2.9,0-5.8,0-8.7,0c-13.9,0.1-25.4,0.5-36.2,1c-6.6,0.3-13.3,0.2-19.8,0.2c-2.6,0-5.3-0.1-7.9-0.1c-0.1,0-0.2,0-0.4,0   c-2.2,0.2-3.7-0.4-4.7-1.2c-1.1,0-2.2,0-3.4,0c-1.1,0-2.6,0.5-3.1-0.9c-0.5-1.3,0.9-2,1.6-2.8c3.2-3.9,6.5-7.7,9.5-11.8   c1.1-1.5,2.3-2.6,3.8-3.2c0.5-0.7,1-1.3,1.5-2c2.6-3.6,5.8-5.3,9.8-5.3c0,0,0.1,0,0.1,0c0.2,0,0.4,0,0.5,0   c12.1,0.2,24.4-0.2,36.3-0.6c12-0.4,24.3-0.8,36.6-0.6c8.1,0.1,16.5-0.4,24.5-0.9c3.3-0.2,6.7-0.4,10-0.6c2.4-0.1,4.7,0.1,7,0.3   c0.2,0,0.4,0,0.6,0.1c0.7-0.8,1.3-1.6,2-2.5c-20.4,0-37.7-0.1-53.9-0.1c-6.9,0-14.1,0.7-20.9,1.4c-5.1,0.5-10.4,1-15.7,1.3   c-3.6,0.2-7.2,0.2-10.7,0.2c-1.7,0-3.3,0-5,0c-0.1,0-0.1,0-0.2,0c-1.7,0-3.2-0.4-4.4-1.2c-1.3,0-2.7,0-4,0c-1.8,0-3.1-0.7-3.9-2.5   c-0.7-1.8,0.7-2.5,1.5-3.3c3.6-3.5,6.7-7.4,10.5-10.7c2.1-2.3,4.4-4.7,7-6.8c0.1-0.1,0.3-0.2,0.4-0.4c0.9-0.8,2.7-2.6,5.5-2.3   c2.6,0.3,5.4-0.3,8.4-0.9c2.6-0.5,5.3-1.1,8.2-1.1c24.6-0.1,49.6-0.1,73.8-0.1l11.7,0c0.3,0,0.6,0,0.9,0c1.3-0.1,3.6-0.2,5.7,1   c1.3-0.8,2.9-1.1,4.7-0.9c1.1,0.1,2.1,0,3-0.4c0.1-0.2,0.2-0.3,0.3-0.5c0.5-0.8,1.2-1.5,2-2.2c-0.4,0-0.8,0-1.1,0   c-3.1,0-6,0-8.7,0.5c-2.5,0.5-4.8,0.1-6.8-0.1c-1.3-0.2-2.5-0.4-3.5-0.3c-17.6,1.2-35.4,1.1-52.6,0.9c-10-0.1-20.3-0.1-30.5,0   c-0.3,0-0.7,0.1-1.1,0.1c-2.7,0.3-4.6-0.6-7.1-0.9c-1.8-0.2-4.7,0.8-6-1.1c-1.6-2.2,1.2-3.5,2.3-4.9c3.2-4.1,6.7-8,10.1-11.9   c0.5-0.6,1.1-1,1.7-1.2c0.5-0.6,1-1.2,1.5-1.8c0.7-0.8,1.4-1.6,2.1-2.4c-31.8-4.2-62.9-8.4-90.2-12.1   c-93.8,37.8-253.6,103.8-324.6,133.3c3.1,0.1,6.4,0.8,8.9,0.9c12.8,0.6,25.6,1.1,38.3,2.3c5.6,0.5,11.3,1.1,16.8,1.3   c6,0.2,11.6,2.6,17.5,2.3c11.3-0.5,22.6,0.9,34.1-1.4c8.3-1.7,17.1-1.7,25.7-2.3c14.1-0.9,28-3.1,42-4.2c3.6-0.3,7-1.7,10.7-2   c6-0.5,12-0.8,18-1.4c7.9-0.7,15.8-1.6,23.7-2.3c11.1-1,22.2-1.7,33.3-2c24.8-0.6,49.6-0.9,74.3-2.2c12-0.7,24,0.3,36.1-1.5   c10.4-1.5,21.2-1.3,31.9-1.6c2.6-0.1,5.2,0.2,7.1,1.8c1.5,1.3,3,1.2,4.6,1.3c5,0.3,9.3-2.5,14.4-2.6c2.7,0,5.6-0.3,8.3-1.1   c5.2-1.6,10.5-2.6,16.1-1.5c4.3,0.8,8.9,0.6,13.4-0.5c5.7-1.3,11.4-2.1,17.3-0.6c0.7,0.2,1.7,0.1,2.4-0.3c4.6-2.6,9-1.2,13.4,0.5   c3.2,1.3,6,0.8,8-1.9c2.4-3.1,5.2-3.6,8.7-2.7c2.8,0.7,5.8,1.3,9.3-1.3c-0.2,0-0.5-0.1-0.7-0.1H662z M423.3,206.4   c-0.6,0.9-1.1,1.8-1.8,2.7c-4.8,6.8-8.6,14.5-11.8,21.3c-1.7,3.7-2.6,8-3.5,12.9c-1.1,6.1-2.1,12.3-3,18.4c2-3.6,3.8-7.3,5.7-10.9   c2.6-5,4.8-10.1,7.3-15.1c1.8-3.5,7-8.7,11-9.3c1.7-0.2,3.4,0.1,5,0.9c0.1-9,0.2-17.9,0.3-26.9c-0.3,0-0.5,0-0.8-0.1   c-0.4,0-0.7-0.1-1-0.1C427.3,200.3,425.8,202.5,423.3,206.4z M258,306.8c1,0.1,2,0.2,2.9,0.3c-0.1-1.9-0.1-3.9,0-5.9   C259.9,303.2,258.9,305,258,306.8z"/>
	<g>
		<g>
			<path class="st2" d="M567.5,113.6c3.7,5.4,6.9,9.7,9.7,14.1c2.7,4.2,1.5,8.3-2.4,10.7c-8.7,5.3-17.7,10-26.6,15     c-7,3.9-19.1-4.4-18.9-12.5c0.2-7.3,0.2-14.7,1-21.9c0.2-1.8,3-3.2,4.6-4.8c1,1.7,2.8,3.4,2.8,5.1c0.1,6.7-0.5,13.3-0.6,20     c0,2.9,0.4,5.9,0.8,10.3c3.4-2,5.7-3.4,8.1-4.8c6.6-3.9,13.1-8.3,20-11.5c5.5-2.5,5.6-5.5,1.5-11c-3.7-4.9-7.4-9.7-10.4-15.5     c2.4,1.1,4.9,2.2,7.5,3.3c2-3.3,5.1-3.8,8.9-2.5c7.2,2.4,14.3,4.6,22.6,7.3c-0.2-3-0.3-4.9-0.5-6.8c-1.4-10.3-7.8-17.8-14.2-25.4     c-2-2.4-8.4-1.4-12.3,1.4c-2.3,1.7-4.8,3.1-7.2,4.7c-0.4-0.4-0.8-0.8-1.1-1.2c2-2,3.7-4.6,6.1-5.9c5-2.8,10.3-5,15.6-7.2     c2.7-1.1,5-0.4,6.7,2.4c4.1,6.4,9,12.4,12.5,19.1c2.3,4.2,3,9.4,4,14.2c1.2,5.7-5.3,12.8-11.2,11.7c-5.9-1.1-11.6-3.3-17.4-5.1     C574.2,115.9,571.4,114.9,567.5,113.6z M519.2,77.9c-5-1.4-10-3-15.1-4c-1.5-0.3-4,0.4-4.9,1.5c-3.7,4.6-6.9,9.5-5.1,16.2     c2.7,9.7,4.8,19.5,7.4,29.3c1.2,4.6,6.6,7.4,11.1,5.6c3.4-1.3,7.2-2.6,9.5-5.2c3.8-4.2,10.9-6.6,9.1-14.4c-0.4,0.1-0.7,0.1-1,0.3     c-4.1,3.2-8.1,6.6-12.3,9.7c-6.4,4.7-11.2,2.5-12.6-5.3c-0.8-4.1-2.5-8.1-3.4-12.2c-1.1-5.4-1.9-10.9-2.8-16.3     c0.5-0.4,1-0.8,1.5-1.2c3.6,1.2,7.2,2.4,10.9,3.5c6.1,1.9,12.1,5.4,18.9,2.8c1.7,1.3,3.6,2.6,5.5,4c0.3-0.3,0.6-0.6,0.9-1     c-0.8-0.9-1.6-1.8-2.2-2.8c-3.5-5.4-5.9-13-1.7-16.9c9.3-8.7,20.7-7.4,32.2-7c-1.9,3.4-4,6.2-6.4,8.7c-4,4-4.6,6.9-1.3,11.5     c4.5-3.8,9.2-7.3,13.3-11.4c3-3,5.8-6.6,3.5-11.4c-2.7-5.5-6.9-7.8-13.1-6.7c-2.6,0.5-5.3,0.1-8,0.2c-8.9,0.5-17.1,2.5-24.6,8     c-4.2,3.1-4.4,6.6-4.1,10.8c0.1,1.6,0.7,3.2,1.4,5.7C523,78.9,521.1,78.4,519.2,77.9z"/>
			<path class="st2" d="M382.9,260.8c-1.8,1.2-2.8,1.6-3.2,2.3c-4.7,7.2-8.8,14.9-14.2,21.6c-4.6,5.7-10.4,10.4-16,15.2     c-2.7,2.3-5.9,4.2-9.3,5.2c-11.2,3.2-17.2-1.1-19.9-11.2c-4.9-18.2-2.9-36.8,1.9-54.8c2.4-8.9,6.3-17.6,10.6-25.8     c2.5-4.8,6.8-8.8,10.9-12.4c4-3.6,8.5-6.7,13.3-9.1c3.1-1.6,7-2.1,10.6-2.2c5.7,0,10.2,2.4,9.9,9.9c-0.4,10.6-5.1,19.1-10.3,27.7     c-2.4,3.9-4.7,7.9-7.5,11.5c-5.7,7.5-11.2,15.3-17.8,22c-7.5,7.6-10.7,16-8.9,26.3c0.4,2.5,2,5.9,3.9,6.6c2.2,0.8,5.5-0.5,8-1.6     c10.8-4.8,16.9-14.9,24.1-23.5c5.5-6.6,10-14.4,13.4-22.3c2.2-5.1,1.3-11.5,2.7-17.1c2-8.5,3.5-17.4,7.4-25     c4.9-9.7,11.7-18.4,18.3-27.2c2.9-3.9,7.9-4.2,11.5-0.8c4.7,4.4,9.1,9.3,13.1,14.4c2.7,3.5,1.4,6.4-2.9,5.9     c-8.3-0.9-10.7,5.8-14,10.5c-4.8,6.8-8.6,14.3-12.1,21.9c-2,4.3-3,9.2-3.8,13.9c-1.6,8.4-2.8,16.9-4,25.4     c-0.2,1.5,0.1,3.2,0.2,4.8c0.5,0.3,1,0.7,1.5,1c2.6-2.7,5.8-5,7.8-8.1c3.6-5.7,6.6-11.7,9.6-17.7c2.6-5,4.8-10.1,7.3-15.1     c1.7-3.5,5.2-3.4,8.3,0c2,2.2,4.1,4.3,6.2,6.4c0.4-0.2,0.8-0.5,1.2-0.7c0.1-1.7,0.2-3.5,0.2-5.2c0.4-41,0.8-82,1.4-123     c0.1-9.5,0.9-19,1.9-28.4c0.6-5.6,2.2-11.2,3.6-17.7c2.1,1.5,4.1,2.2,4.9,3.5c5.9,9.5,8.6,19.5,5.1,30.6     c-0.6,1.9-0.6,3.9-0.8,5.9c-1.5,17.1-2.9,34.2-4.3,51.3c-1.6,20.2-3.2,40.4-4.8,60.6c-0.1,0.9,0.1,1.8,0.3,3.6     c4.4-6.8,8.3-12.7,12.1-18.7c3.5-5.6,6.7-6.6,14.3-4.7c4.5,1.1,8.1,5.4,8,10.6c-0.1,8-0.5,16-0.9,24c-0.4,6.9-0.4,13.7,3.6,19.6     c1.3,1.9,4.1,4.5,5.9,4.2c5.7-0.9,11.6-2.3,16.8-4.8c4.8-2.3,8.9-6,13-9.5c1.4-1.2,2.1-3.8,2.1-5.8c-0.1-11.8-1.8-23.8,3.8-34.9     c4.3-8.6,9.1-17.1,17.3-22.7c4.9-3.4,10.9-5.2,15.9-1.5c3.6,2.7,6.6,7.5,8,11.9c1.8,5.5,2.1,11.5-1.7,17.1     c-3.8,5.7-6.4,12.2-10.2,17.9c-3.4,5.1-7.9,9.5-11.7,14.4c-3.5,4.4-2.1,7.8,3.6,8.3c9.8,0.7,19.4-0.8,28.6-4.6     c3.8-1.6,8.2-1.6,12-3c13-5,26-10.1,38.9-15.6c9.7-4.1,19.2-8.8,28.7-13.3c3.5-1.7,6.7-3.7,10.1-5.5c0.4,0.3,0.7,0.7,1.1,1     c-0.7,1.5-1,3.6-2.2,4.4c-7.1,4.4-14.4,8.4-21.6,12.7c-2.5,1.5-4.7,3.4-7.2,4.8c-7.9,4.5-15.8,8.9-23.8,13.3     c-6.6,3.6-13,7.9-19.9,10.6c-7.5,3-15.4,5.4-23.4,6.5c-9,1.2-18.2,0.9-27.3,0.5c-5-0.2-9.6-2.7-11.6-6.8     c-8.8,5.7-17.4,11.6-26.3,16.9c-3.8,2.3-8.3,3-12.5-0.1c-4.9-3.5-10.7-6-14.8-10.2c-3.7-3.9-6-9.3-8.4-14.2     c-1.3-2.6-1.6-5.7-3.4-9.1c-1.3,2.5-2.8,5-3.7,7.6c-5.1,14.4-6.5,29.4-7.3,44.5c0,1,0,2.1-0.4,3c-1.5,3.1-2.3,7.1-7.2,6.7     c-4.5-0.4-5.1-4.1-5.2-7.3c-0.3-10.7-0.2-21.3-0.2-32c0-1.8,0-3.5,0-5.3c-0.7-0.5-1.4-1-2-1.5c-0.5,1.2-0.8,2.5-1.5,3.7     c-4.8,8.4-9.1,17.1-14.7,25c-4.8,6.9-10.3,13.5-16.7,18.8c-4.7,3.9-10.8,1.1-14.2-4.2C385.7,282.8,382.1,273,382.9,260.8z      M358.2,210.1c-9.4-0.8-26.2,29.9-23.1,42.1C345,246.4,360.3,218.6,358.2,210.1z M538.6,222.6c1.9-1.4,3.2-1.9,3.8-2.9     c2.6-3.9,5.1-7.9,7.5-12c1.7-3,3.3-6,4.5-9.2c0.6-1.6-0.1-3.7-0.1-5.6c-1.2,0.3-2.7,0.2-3.5,1     C543.1,201.5,539.6,210.9,538.6,222.6z M57.6,331.4c1.7-3.5,3.7-6.9,5-10.5c3.4-10,6.6-20,9.8-30.1c4.5-14.1,8.8-28.3,13.3-42.4     c1.7-5.2,3.9-8.7,10.7-9.7c7.4-1.1,14.4-2,21.5,0.4c6.8,2.3,13.3,5.5,16.6,12.7c0.6,1.4,2.9,2.8,4.4,2.8     c7-0.3,14.9,5.7,14.7,12.7c-0.3,9.1-2.1,18.1-3.1,27.1c-0.8,7.2-1.3,14.4-1.8,20.2c4.8,0.5,8.9,0.6,12.7,1.5     c4.6,1.1,5.1,4.7,3.2,8.2c-2.1,3.8-4.6,7.6-7.6,10.8c-4.6,4.9-9.2,4.7-14.7,0.8c-5.1-3.5-10.1-6.8-10.6-14.1     c-0.5,0.1-0.9,0.1-1.4,0.2c-0.7,1.5-1.6,2.9-2.1,4.5c-3.6,10.5-8.1,20.2-17.2,27.4c-8.4,6.5-23.6,3-26.7-7.2     c-1.7-5.7-2.1-11.7-3.1-17.6c-0.9-5.4-1.7-10.9-2.6-16.4c-0.5-0.1-0.9-0.1-1.4-0.2c-2.4,7.4-5,14.7-7.1,22.2     c-2.6,9.5-4.7,19.2-7.4,28.7c-0.4,1.4-3,3.3-4.3,3.1c-2.9-0.4-6.6-1.2-8.4-3.2c-2.1-2.3-3.5-6.1-3.6-9.3     c-0.2-24.6-0.7-49.3,0.4-73.9c1.3-28.4,3.6-56.7,6.6-85c1.3-12.1,5.6-23.9,8.6-35.9c0.9-3.7,2-7.4,3.3-10.9     c1.8-4.8,7.1-5.8,11-2.3c7.3,6.5,8.6,12.9,4.7,22c-0.9,2.1-2,4.1-2.6,6.3c-3.6,13.3-7.2,26.5-10.5,39.9c-2.3,9.3-4,18.7-6,28.1     c-6,27.3-5.6,55.1-5.9,82.8c0,2.1,0.4,4.2,0.7,6.3C56.9,331.3,57.3,331.3,57.6,331.4z M95.2,345.3c10-2.6,15.6-8.5,18.5-16.2     c2.9-7.7,5-15.9,5.9-24c1.6-15,2.1-30.2,2.9-45.2c0.1-1.2-0.4-3.4-0.9-3.5c-1.5-0.3-3.7-0.2-4.6,0.7c-5,4.9-10.3,9.7-14.2,15.4     c-7.6,11-8.6,24.4-10.6,37.2c-1.2,7.6-0.6,15.6-0.1,23.4C92.4,337.3,94.2,341.4,95.2,345.3z M269.4,295.8c0.1,4.6-0.5,9.6,1,13.8     c1.1,2.9,4.9,6.1,8,6.7c3.9,0.8,4.1-3.7,4.7-6.8c0.8-4.5,1.9-9,2.7-13.5c2.1-11,3.8-22.2,6.4-33.1c2.7-11.5,5.7-23.1,9.8-34.2     c2.7-7.3,5.1-15.5,12.9-19.9c1.2-0.7,1.7-2.8,2.5-4.3c-1.8-0.3-4-1.5-5.4-0.8c-3.9,1.9-7.7,4.2-11.1,6.9     c-3.6,2.9-6.7,6.4-10.9,10.5c0.4-5.9,0.9-10.7-4-13.9c-4-2.6-7.2-6.6-13.9-6.2c-0.8,11.1-1.4,22-2.3,32.8     c-0.4,4.4-0.7,9.1-2.2,13.2c-3.3,8.9-7.1,17.6-11.2,26.2c-4.7,9.7-9.8,19.3-15.3,28.7c-4.4,7.5-11,7.3-14.9-0.6     c-2.8-5.5-5-11.5-6.4-17.6c-4.4-19.7-4.9-39.6-4.3-59.7c0.8-27,4.4-53.4,13.8-78.9c3.4-9.2,7.5-17.9,14.8-26c0,2.6,0,4.3,0,5.9     c-0.2,17.9-0.9,35.8-6.4,53.1c-2,6.1-1,11.8,5.1,15.6c2.6,1.6,5.2,3.3,7.7,4.9c5.5-2.5,5-7.8,6.3-12.3     c3.4-11.5,6.8-23.1,10.2-34.6c1.9-6.3,0.9-9.4-4.8-10c-5.9-0.6-7.1-4-7.1-8.7c-0.1-9.3-0.1-18.7-0.1-28c0-5.1-3.6-8.4-8.6-7     c-2.8,0.8-6.1,2.6-7.6,4.9c-4.8,7.6-9.7,15.3-13.1,23.6c-5.3,13.3-9.6,26.9-14,40.6c-2,6.3-3.6,12.7-4.5,19.2     c-2.3,17.3-4.7,34.6-6,51.9c-1,12.2-0.5,24.4,1.9,36.6c3.3,16.8,9.2,32.1,20.8,45c5.7,6.4,16.5,7.2,21.3,0.3     c6.1-8.6,10.8-18.2,15.6-27.7c3.3-6.6,5.5-13.6,8.6-21.4C269.3,280.2,269.2,288,269.4,295.8z M365.2,166c-1.1-1.5-2-3.3-3.4-4.4     c-12.7-9.8-24.5-20.5-33.8-33.8c-2.7-3.9-7.8-4.3-11.9-1.1c-2.8,2.2-3,8.7,0.1,11.3c4.3,3.7,8.9,7.2,13.6,10.4     c7.9,5.2,15.9,10.2,24.1,15c3.2,1.8,6.8,2.8,10.2,4.2C364.5,167,364.8,166.5,365.2,166z"/>
		</g>
		<linearGradient id="SVGID_2_" gradientUnits="userSpaceOnUse" x1="628.493" y1="276.8118" x2="628.493" y2="452.1239">
			<stop offset="0" style="stop-color:#BE9FA7"/>
			<stop offset="1" style="stop-color:#986576"/>
		</linearGradient>
		<path class="st3" d="M721.8,351.8c0.1,1.2,0,2.5,1,3.3c3.8,3.2,6.6,7.3,9.5,11.2c3.6,4.9,8.3,9,12.1,13.8c4.4,5.6,8.1,11.9,13,17    c6,6.3,10.2,13.9,16,20.3c0.5,0.6,1.1,1.3,1.3,2.1c2.7,8.3,9.9,12.9,15.5,18.8c2,2.1,3.6,4.3,5.2,6.5c1.5,2.1,0.1,4.9-2.5,5    c-7.1,0.3-14.2,0.3-21.4,0.4c-6.1,0.1-12.3-1.1-18.4,0.5c-0.9,0.3-2,0.2-3,0.2c-16.8,0.8-33.6,0.7-50.4,1.2    c-15.2,0.4-30.3-1.2-45.4-1.4c-4.3-0.1-8.6-0.9-12.9-0.7c-2.4,0.1-4-1.9-6.4-2.2c-4.7-0.6-9.2-0.1-13.9,0c-14,0.3-28,0.2-42,0.2    c-1.6,0-3.6,0.7-4.4-1.3c-0.7-1.6,0.5-2.8,1.4-4c1.7-2.4,2.6-5.3,5.6-6.7c-0.2-0.3-0.4-0.6-0.6-0.9c-6.7,0-13.5-0.6-20.1,0.1    c-11,1.1-22,0.7-32.9,0.8c-12.1,0.1-24.3,0.4-36.4,1c-9.1,0.5-18.3,0.1-27.5,0.1c-1.1,0-2.6,0.5-3.1-0.9c-0.5-1.3,0.9-2,1.6-2.8    c3.2-3.9,6.5-7.7,9.5-11.8c1.7-2.4,3.7-3.7,6.6-3.6c0.2,0,0.3,0,0.5,0c24.3,0.4,48.6-1.6,72.9-1.2c11.6,0.2,23.2-0.9,34.9-1.4    c3-0.1,5.9,0.3,8.9,0.6c1.6,0.1,3-0.1,3.7-1.9c1.2-3.1,3.8-5.3,5.6-8.1c-0.9-1.1-2.1-0.7-3.2-0.7c-19.8,0-39.7-0.1-59.5-0.1    c-12.3,0-24.6,2.1-36.9,2.6c-5.2,0.2-10.3,0.2-15.5,0.2c-1.8,0-3.1-0.7-3.9-2.5c-0.7-1.8,0.7-2.5,1.5-3.3    c3.9-3.8,7.2-8.1,11.5-11.6c0.9-0.7,1.7-1.9,2.9-1.7c5.8,0.6,11.3-1.9,17-1.9c28.5-0.2,57-0.1,85.5,0c1.9,0,4-0.5,5.6,1.3    c0.6,0.7,1.6,0.5,2.2-0.2c0.9-1.1,2-1.2,3.1-1.1c6,0.5,9.4-3.1,12.1-7.6c0.9-1.5,2.4-2.3,3.8-4.3c-7.3,1.7-14.2,0.2-20.9,1.5    c-3.4,0.6-6.5-0.7-9.9-0.5c-27.6,1.8-55.3,0.5-82.9,1c-1.9,0-4.5,0.9-5.7-0.8c-1.6-2.2,1.2-3.5,2.3-4.9c3.2-4.1,6.7-8,10.1-11.9    c1.7-1.9,4-1.4,6.1-1.4c31.7,0,63.3-0.1,95,0c6,0,11.9-0.4,17.9-1c1.5-0.1,2.8-0.6,3.3-1.8c0.9-2,2.7-3.2,5.1-5.1    c-2.3-0.1-3.6-0.3-5-0.3c-18.5,0-37,0.4-55.5-0.1c-16.3-0.4-32.6-1.2-48.9-0.8c-1.1,0-2.4,0.1-3.4-1.2c3.6-4.6,6.6-9.8,11-13.9    c2.7-2.5,5.4-4.3,9.2-4c7.3,0.6,14.6-0.1,21.8-0.3c4.5-0.1,9.3-0.4,13.7-0.2c11.3,0.5,22.6,0.1,33.8,1.4c4.1,0.5,8.4,0.5,12.5,0    c7.3-0.9,14.5-1.3,21.8,0.1c2.7,0.5,4.9-0.6,6.1-2.4c4.5-6.6,9.5-12.7,14.4-18.9c4.3,4,7.3,9,11.9,12.7c1.3,1.1,2.1,2.6,3.1,3.9    c1.2,1.6,2.1,3.4,4.3,3.9l0,0c1.6,3.1,3.3,6,5.7,8.7c2.3,2.6,5.4,4.7,6.9,8c0.6,1.2,1.6,2.5,3.4,2.3l0,0c-0.2,1.6,0.7,2,2,2l0,0    C720.9,351.4,721.3,351.7,721.8,351.8L721.8,351.8z M637.9,311.5c-3.8-2.6-6-6.6-7.9-10.5c-1-2-2-2.2-3.7-2.2    c-14.6,0-29.3,0.1-43.9,0c-2.8,0-4.1,1-4.9,3.7c-0.6,1.9-1.1,4.6-3.4,5.2c-2.6,0.6-3.2,2.6-4.3,4.4c-2.3,4-2.1,4.3,2.7,4.7    c5.4,0.4,10.6-0.7,15.9-1c10.5-0.7,20.9,1.2,31.3,1.1c4,0,7.9-0.1,11.9,0.7c3.2,0.6,6.6,0.5,10.9-0.2    C640.3,315,639.7,312.8,637.9,311.5z M620.9,287.4c-3.5-2.3-5.6-5.8-8.9-8.4c-4.5-3.5-9.5-1.8-14.3-1.9c-0.5,0-1.2,0.6-1.6,1.1    c-2.3,3.3-4.3,6.7-7.5,10c11.1,0,21.4,0,31.7,0C620.5,288,620.7,287.7,620.9,287.4z"/>
	</g>
	<path class="st4" d="M537,91.6c0-0.8-0.1-1.5-0.1-2.3c2.2-2.2,5.2-3.3,6.9-6.2c1.6-2.7,3.7-2.5,5.1,0.4c1,2,1.6,3,4,1.8   c1.8-0.9,3.6-0.3,4.9,1.3c0.8,0.9,1.8,1.5,3,1.5c0.4,0.2,0.8,0.4,1.3,0.5c1.7,6.1,1.5,11.6-3.9,16c-0.3,0.2-0.2,0.9-0.2,1.4   c-0.7,0.2-1.2,0.5-1.4,1.2c-2.4-0.4-4.6,0.1-5.4,2.5c-1.2,3.7-4.5,2-6.8,2.9c-1.7,0.6-1.9-1.9-2.4-3.1c-0.6-1.5-1.8-1.1-2.9-1.3   c-2.9-0.4-3.4-3.4-4.8-5.2c-1.1-1.4,0.2-3.1,1.7-4.6C537.5,96.7,538.6,94.2,537,91.6z"/>
</g>
</svg>